{"accessors":[{"bufferView":2,"componentType":5126,"count":538,"max":[0.662283718585968,0.4106346368789673,0.6605305075645447],"min":[-0.5822796821594238,-0.4106346368789673,-0.6605305075645447],"type":"VEC3"},{"bufferView":2,"byteOffset":6456,"componentType":5126,"count":538,"max":[1,0.9976585507392883,0.9982367157936096],"min":[-1,-0.9976585507392883,-0.9982367157936096],"type":"VEC3"},{"bufferView":1,"componentType":5126,"count":538,"max":[0.9928349256515503,0.9964905977249146],"min":[0.003450721502304077,0.5059166550636292],"type":"VEC2"},{"bufferView":0,"componentType":5125,"count":2952,"max":[537],"min":[0],"type":"SCALAR"},{"bufferView":2,"byteOffset":12912,"componentType":5126,"count":642,"max":[1,1,1],"min":[-1,-1,-1],"type":"VEC3"},{"bufferView":2,"byteOffset":20616,"componentType":5126,"count":642,"max":[1,1,1],"min":[-1,-1,-1],"type":"VEC3"},{"bufferView":1,"byteOffset":4304,"componentType":5126,"count":642,"max":[0.9967929720878601,0.4967931807041168],"min":[0.0032069340813905,0.0032069340813905],"type":"VEC2"},{"bufferView":0,"byteOffset":11808,"componentType":5125,"count":3600,"max":[641],"min":[0],"type":"SCALAR"}],"asset":{"extras":{"author":"Azamuki (https://sketchfab.com/Azamuki)","license":"CC-BY-4.0 (http://creativecommons.org/licenses/by/4.0/)","source":"https://sketchfab.com/3d-models/heart-in-love-f39ce19b92e246268f4c501b72ea7d0e","title":"Heart in Love"},"generator":"Sketchfab-8.59.0","version":"2.0"},"bufferViews":[{"buffer":0,"byteLength":26208,"byteOffset":0,"name":"floatBufferViews","target":34963},{"buffer":0,"byteLength":9440,"byteOffset":26208,"byteStride":8,"name":"floatBufferViews","target":34962},{"buffer":0,"byteLength":28320,"byteOffset":35648,"byteStride":12,"name":"floatBufferViews","target":34962}],"buffers":[{"byteLength":63968,"uri":"data:application/octet-stream;base64,"}],"images":[{"uri":"data:application/octet-stream;base64,"},{"uri":"data:application/octet-stream;base64,"},{"uri":"data:application/octet-stream;base64,"}],"materials":[{"doubleSided":true,"name":"Heart","pbrMetallicRoughness":{"baseColorFactor":[1,1,1,1],"baseColorTexture":{"index":0,"texCoord":0},"metallicFactor":1,"metallicRoughnessTexture":{"index":1,"texCoord":0},"roughnessFactor":0}},{"alphaMode":"BLEND","doubleSided":true,"name":"Marble","pbrMetallicRoughness":{"baseColorFactor":[1,1,1,0.1],"baseColorTexture":{"index":2,"texCoord":0},"metallicFactor":1,"metallicRoughnessTexture":{"index":1,"texCoord":0},"roughnessFactor":0}}],"meshes":[{"name":"Heart_Heart_0","primitives":[{"attributes":{"NORMAL":1,"POSITION":0,"TEXCOORD_0":2},"indices":3,"material":0,"mode":4}]},{"name":"Marble_Marble_0","primitives":[{"attributes":{"NORMAL":5,"POSITION":4,"TEXCOORD_0":6},"indices":7,"material":1,"mode":4}]}],"nodes":[{"children":[1],"name":"RootNode (gltf orientation matrix)","rotation":[-0.7071067811865475,0,0,0.7071067811865476]},{"children":[2],"name":"RootNode (model correction matrix)"},{"children":[3],"matrix":[1,0,0,0,0,0,1,0,0,-1,0,0,0,0,0,1],"name":"heart_in_love_original.fbx"},{"children":[4,6],"name":"RootNode"},{"children":[5],"matrix":[-0.000028212996872056806,-99.99999999999602,1.6653345369377348e-14,0,-0.000016292067944734256,4.5852210917018965e-12,-99.99999999999866,0,99.9999999999947,-0.000028212996894261266,-0.00001629206793918314,0,0,0,0,1],"name":"Heart"},{"mesh":0,"name":"Heart_Heart_0"},{"children":[7],"matrix":[100,0,0,0,0,-0.00001629206793918314,-99.99999999999868,0,0,99.99999999999868,-0.00001629206793918314,0,0,0,0,1],"name":"Marble"},{"mesh":1,"name":"Marble_Marble_0"}],"samplers":[{"magFilter":9729,"minFilter":9987,"wrapS":10497,"wrapT":10497}],"scene":0,"scenes":[{"name":"OSG_Scene","nodes":[0]}],"textures":[{"sampler":0,"source":0},{"sampler":0,"source":1},{"sampler":0,"source":2}]}